# xmcd
#
# Track frame offsets:
#	183
#	11675
#	35098
#	47955
#	61478
#	76525
#	91120
#	103448
#	117068
#	130040
#	141845
#	155133
#	168273
#	181695
#
# Disc length: 2615
#
# Revision: 3
# Processed by: cddbd v1.5.1PL0 Copyright (c) Steve Scherf et al.
# Submitted via: libkcddb 0.10
# Normalized: r2:TDELIM( - )
#
DISCID=b30a350e
DTITLE=Various Artist - Chicago in the 60's - 2
DYEAR=1900
DGENRE=
TTITLE0=John Lee Hooker - Boogie Chillen
TTITLE1=Lightnin' Hopkins - Really nothin'
TTITLE2=Muddy Waters - Hoochie Coochie
TTITLE3=Howlin' Wolf - I'm the wolf
TTITLE4=Johnny Otis - Sittin' here all alone
TTITLE5=Big Bill Broonzy - Loansome Road Blues
TTITLE6=Otis Spann - I'm leaving you
TTITLE7=Albert King - Bad Luck Blues
TTITLE8=Wilie Mabon - Lonely Blues
TTITLE9=T-Bone Walker - I get so weary
TTITLE10=Elmore James - Dust my broom
TTITLE11=Sonny Terry and Brownie McGhee - Walk on
TTITLE12=Sonny Boy Williamson - Unseen eye
TTITLE13=B B King - Rock me baby
EXTD=
EXTT0=
EXTT1=
EXTT2=
EXTT3=
EXTT4=
EXTT5=
EXTT6=
EXTT7=
EXTT8=
EXTT9=
EXTT10=
EXTT11=
EXTT12=
EXTT13=
PLAYORDER=
